<mxfile host="app.diagrams.net" modified="2023-03-28T18:06:47.293Z" agent="Mozilla/5.0 (Windows NT 10.0; Win64; x64) AppleWebKit/537.36 (KHTML, like Gecko) Chrome/111.0.0.0 Safari/537.36" etag="hxYdtrz7Jq56u2yldBWf" version="21.1.1" type="github">
  <diagram id="R2lEEEUBdFMjLlhIrx00" name="Page-1">
    <mxGraphModel dx="1434" dy="788" grid="1" gridSize="10" guides="1" tooltips="1" connect="1" arrows="1" fold="1" page="1" pageScale="1" pageWidth="850" pageHeight="1100" math="0" shadow="0" extFonts="Permanent Marker^https://fonts.googleapis.com/css?family=Permanent+Marker">
      <root>
        <mxCell id="0" />
        <mxCell id="1" parent="0" />
        <mxCell id="_SicbBEpYMEOg18o6iq3-1" value="Exercicio 0" style="text;html=1;strokeColor=none;fillColor=none;align=center;verticalAlign=middle;whiteSpace=wrap;rounded=0;" parent="1" vertex="1">
          <mxGeometry x="265" y="10" width="320" height="30" as="geometry" />
        </mxCell>
        <mxCell id="_SicbBEpYMEOg18o6iq3-4" value="&lt;div style=&quot;text-align: justify;&quot;&gt;&lt;div style=&quot;border-color: var(--border-color);&quot;&gt;&lt;div style=&quot;border-color: var(--border-color);&quot;&gt;&lt;br&gt;&lt;p style=&quot;line-height: 1.38; margin-top: 0pt; margin-bottom: 0pt;&quot; dir=&quot;ltr&quot;&gt;&lt;/p&gt;&lt;p style=&quot;line-height: 1.38; margin-top: 0pt; margin-bottom: 0pt;&quot; dir=&quot;ltr&quot;&gt;&lt;br&gt;&lt;/p&gt;&lt;p style=&quot;line-height: 1.38; margin-top: 0pt; margin-bottom: 0pt;&quot; dir=&quot;ltr&quot;&gt;&lt;/p&gt;&lt;p style=&quot;line-height: 1.38; margin-top: 0pt; margin-bottom: 0pt;&quot; dir=&quot;ltr&quot;&gt;&lt;/p&gt;&lt;p style=&quot;line-height: 1.38; margin-top: 0pt; margin-bottom: 0pt;&quot; dir=&quot;ltr&quot;&gt;&lt;br&gt;&lt;/p&gt;&lt;p style=&quot;line-height: 1.38; margin-top: 0pt; margin-bottom: 0pt;&quot; dir=&quot;ltr&quot;&gt;&lt;/p&gt;&lt;p style=&quot;line-height: 1.38; margin-top: 0pt; margin-bottom: 0pt;&quot; dir=&quot;ltr&quot;&gt;&lt;/p&gt;&lt;p style=&quot;line-height: 1.38; margin-top: 0pt; margin-bottom: 0pt;&quot; dir=&quot;ltr&quot;&gt;&lt;br&gt;&lt;/p&gt;&lt;p style=&quot;line-height: 1.38; margin-top: 0pt; margin-bottom: 0pt;&quot; dir=&quot;ltr&quot;&gt;&lt;/p&gt;&lt;p style=&quot;line-height: 1.38; margin-top: 0pt; margin-bottom: 0pt;&quot; dir=&quot;ltr&quot;&gt;&lt;/p&gt;&lt;p style=&quot;line-height: 1.38; margin-top: 0pt; margin-bottom: 0pt;&quot; dir=&quot;ltr&quot;&gt;&lt;br&gt;&lt;/p&gt;&lt;p style=&quot;line-height: 1.38; margin-top: 0pt; margin-bottom: 0pt;&quot; dir=&quot;ltr&quot;&gt;&lt;/p&gt;&lt;p style=&quot;line-height: 1.38; margin-top: 0pt; margin-bottom: 0pt;&quot; dir=&quot;ltr&quot;&gt;&lt;/p&gt;&lt;p style=&quot;line-height: 1.38; margin-top: 0pt; margin-bottom: 0pt;&quot; dir=&quot;ltr&quot;&gt;&lt;/p&gt;&lt;p style=&quot;line-height:1.38;text-align: center;margin-top:0pt;margin-bottom:0pt;&quot; dir=&quot;ltr&quot;&gt;&lt;br&gt;&lt;/p&gt;&lt;p style=&quot;line-height: 1.38; margin-top: 0pt; margin-bottom: 0pt;&quot; dir=&quot;ltr&quot;&gt;&lt;/p&gt;&lt;p style=&quot;line-height: 1.38; margin-top: 0pt; margin-bottom: 0pt;&quot; dir=&quot;ltr&quot;&gt;&lt;br&gt;&lt;/p&gt;&lt;p style=&quot;line-height: 1.38; margin-top: 0pt; margin-bottom: 0pt;&quot; dir=&quot;ltr&quot;&gt;&lt;/p&gt;&lt;p style=&quot;line-height:1.38;text-align: center;margin-top:0pt;margin-bottom:0pt;&quot; dir=&quot;ltr&quot;&gt;&lt;br&gt;&lt;/p&gt;&lt;p style=&quot;line-height: 1.38; margin-top: 0pt; margin-bottom: 0pt;&quot; dir=&quot;ltr&quot;&gt;&lt;/p&gt;&lt;p style=&quot;line-height: 1.38; margin-top: 0pt; margin-bottom: 0pt;&quot; dir=&quot;ltr&quot;&gt;&lt;/p&gt;&lt;p style=&quot;line-height: 1.38; margin-top: 0pt; margin-bottom: 0pt;&quot; dir=&quot;ltr&quot;&gt;&lt;/p&gt;&lt;p style=&quot;line-height:1.38;text-align: center;margin-top:0pt;margin-bottom:0pt;&quot; dir=&quot;ltr&quot;&gt;&lt;br&gt;&lt;/p&gt;&lt;p style=&quot;line-height: 1.38; margin-top: 0pt; margin-bottom: 0pt;&quot; dir=&quot;ltr&quot;&gt;&lt;/p&gt;&lt;p style=&quot;line-height: 1.38; margin-top: 0pt; margin-bottom: 0pt;&quot; dir=&quot;ltr&quot;&gt;&lt;br&gt;&lt;/p&gt;&lt;p style=&quot;line-height: 1.38; margin-top: 0pt; margin-bottom: 0pt;&quot; dir=&quot;ltr&quot;&gt;&lt;/p&gt;&lt;p style=&quot;line-height: 1.38; margin-top: 0pt; margin-bottom: 0pt;&quot; dir=&quot;ltr&quot;&gt;&lt;/p&gt;&lt;p style=&quot;line-height: 1.38; margin-top: 0pt; margin-bottom: 0pt;&quot; dir=&quot;ltr&quot;&gt;&lt;br&gt;&lt;/p&gt;&lt;p style=&quot;line-height: 1.38; margin-top: 0pt; margin-bottom: 0pt;&quot; dir=&quot;ltr&quot;&gt;&lt;/p&gt;&lt;p style=&quot;line-height: 1.38; margin-top: 0pt; margin-bottom: 0pt;&quot; dir=&quot;ltr&quot;&gt;&lt;/p&gt;&lt;p style=&quot;line-height: 1.38; margin-top: 0pt; margin-bottom: 0pt;&quot; dir=&quot;ltr&quot;&gt;&lt;br&gt;&lt;/p&gt;&lt;p style=&quot;line-height: 1.38; margin-top: 0pt; margin-bottom: 0pt;&quot; dir=&quot;ltr&quot;&gt;&lt;/p&gt;&lt;p style=&quot;line-height: 1.38; margin-top: 0pt; margin-bottom: 0pt;&quot; dir=&quot;ltr&quot;&gt;&lt;br&gt;&lt;/p&gt;&lt;p style=&quot;line-height: 1.38; margin-top: 0pt; margin-bottom: 0pt;&quot; dir=&quot;ltr&quot;&gt;&lt;br&gt;&lt;/p&gt;&lt;p style=&quot;line-height: 1.38; margin-top: 0pt; margin-bottom: 0pt;&quot; dir=&quot;ltr&quot;&gt;&lt;/p&gt;&lt;p style=&quot;line-height: 1.38; margin-top: 0pt; margin-bottom: 0pt;&quot; dir=&quot;ltr&quot;&gt;&lt;br&gt;&lt;/p&gt;&lt;p style=&quot;line-height: 1.38; margin-top: 0pt; margin-bottom: 0pt;&quot; dir=&quot;ltr&quot;&gt;&lt;/p&gt;&lt;p style=&quot;line-height: 1.38; margin-top: 0pt; margin-bottom: 0pt;&quot; dir=&quot;ltr&quot;&gt;&lt;/p&gt;&lt;div&gt;&lt;/div&gt;&lt;span style=&quot;font-size: 11pt; font-family: Arial; background-color: transparent; font-variant-numeric: normal; font-variant-east-asian: normal; font-variant-alternates: normal; vertical-align: baseline;&quot;&gt;Para que seja possível garantir a integridade dos dados, é necessário conhecer e aplicar determinadas restrições de armazenamento, que chamamos de Restrições de Integridade, que dizem respeito a aspectos como tipos dos dados armazenados, relacionamentos entre colunas de chave primária e estrangeira, possibilidade de haver valores nulos ou não, e regras de negócio específicas importantes requisitadas pelo cliente, por exemplo&lt;/span&gt;&lt;p&gt;&lt;/p&gt;&lt;span style=&quot;font-size: 11pt; font-family: Arial; background-color: transparent; font-variant-numeric: normal; font-variant-east-asian: normal; font-variant-alternates: normal; vertical-align: baseline;&quot;&gt;l) Restrições de integridade;&lt;/span&gt;&lt;p&gt;&lt;/p&gt;&lt;span style=&quot;font-size: 11pt; font-family: Arial; background-color: transparent; font-variant-numeric: normal; font-variant-east-asian: normal; font-variant-alternates: normal; vertical-align: baseline;&quot;&gt;Os índices aceleram a recuperação dos dados. Por exemplo, imagine que você compre um livro de 800 páginas para suas pesquisas acadêmicas e este não apresente em seu conteúdo um índice reportando o seu conteúdo.&lt;/span&gt;&lt;p&gt;&lt;/p&gt;&lt;span style=&quot;font-size: 11pt; font-family: Arial; background-color: transparent; font-variant-numeric: normal; font-variant-east-asian: normal; font-variant-alternates: normal; vertical-align: baseline;&quot;&gt;k) Índice;&lt;/span&gt;&lt;p&gt;&lt;/p&gt;&lt;span style=&quot;font-size: 11pt; font-family: Arial; background-color: transparent; font-variant-numeric: normal; font-variant-east-asian: normal; font-variant-alternates: normal; vertical-align: baseline;&quot;&gt;&lt;span style=&quot;border:none;display:inline-block;overflow:hidden;width:429px;height:151px;&quot;&gt;&lt;img style=&quot;margin-left:0px;margin-top:0px;&quot; height=&quot;151&quot; width=&quot;429&quot; src=&quot;https://lh5.googleusercontent.com/c60ZPZ1uM7XNMfQGgpP5cWDlXRQlU8uWj5GtAJlct86IL3OKNCA8MdXMEytUvEmdmYt80zPOAVNxDOqfmeH2QiBs3b1WcazNtG4Aa-sZRo4_52P3NpQAbYGFyoVEq17-WJDP2o6Ztqpzeg3jAPNYQqg&quot;&gt;&lt;/span&gt;&lt;/span&gt;&lt;p&gt;&lt;/p&gt;&lt;span style=&quot;font-size: 11pt; font-family: Arial; background-color: transparent; font-variant-numeric: normal; font-variant-east-asian: normal; font-variant-alternates: normal; vertical-align: baseline;&quot;&gt;Em tabela de um banco de dados relacional, a obrigação de diferenciar uma tupla da outra é da regra de chave primária, porem como sempre devemos manter o conceito de chave mínima, algumas colunas que naturalmente possuem característica de informação única (CPF, RG, CNH,...), podem ficar de fora da regra de chave primária.&lt;/span&gt;&lt;p&gt;&lt;/p&gt;&lt;span style=&quot;font-size: 11pt; font-family: Arial; background-color: transparent; font-variant-numeric: normal; font-variant-east-asian: normal; font-variant-alternates: normal; vertical-align: baseline;&quot;&gt;j) Chave alternativa;&lt;/span&gt;&lt;p&gt;&lt;/p&gt;&lt;span style=&quot;font-size: 11pt; font-family: Arial; background-color: transparent; font-variant-numeric: normal; font-variant-east-asian: normal; font-variant-alternates: normal; vertical-align: baseline;&quot;&gt;&lt;span style=&quot;border:none;display:inline-block;overflow:hidden;width:383px;height:270px;&quot;&gt;&lt;img style=&quot;margin-left:0px;margin-top:0px;&quot; height=&quot;270&quot; width=&quot;383&quot; src=&quot;https://lh6.googleusercontent.com/tqpB0B87-1_CiK2n18Oc2oc2kQPXW9BNspeuaJuQJZUS9W_vWywIW4tdTF_mXmk9uiX7Y8vApnRfFM4f491zkHqSwt2FSmn_AnzkIsBXTT0tw9Y9Xu4CefxD3XJ9MLhsn8NmoG2jZi25yeHoOLMt6gw&quot;&gt;&lt;/span&gt;&lt;/span&gt;&lt;p&gt;&lt;/p&gt;&lt;span style=&quot;font-size: 11pt; font-family: Arial; background-color: transparent; font-variant-numeric: normal; font-variant-east-asian: normal; font-variant-alternates: normal; vertical-align: baseline;&quot;&gt;Ela não diz respeito, especificamente, a uma tabela, mas sim a um relacionamento entre tabelas. De forma sucinta, a chave estrangeira é uma referência em uma tabela a uma chave primária de outra tabela.&amp;nbsp;&lt;/span&gt;&lt;p&gt;&lt;/p&gt;&lt;span style=&quot;font-size: 11pt; font-family: Arial; background-color: transparent; font-variant-numeric: normal; font-variant-east-asian: normal; font-variant-alternates: normal; vertical-align: baseline;&quot;&gt;i) Chave estrangeira;&lt;/span&gt;&lt;p&gt;&lt;/p&gt;&lt;span style=&quot;font-size: 11pt; font-family: Arial; background-color: transparent; font-variant-numeric: normal; font-variant-east-asian: normal; font-variant-alternates: normal; vertical-align: baseline;&quot;&gt;&lt;span style=&quot;border:none;display:inline-block;overflow:hidden;width:332px;height:151px;&quot;&gt;&lt;img style=&quot;margin-left:0px;margin-top:0px;&quot; height=&quot;151&quot; width=&quot;332&quot; src=&quot;https://lh5.googleusercontent.com/O0iJp--vCDKcJCRbTCRSojS7jm1XuxpPyJVv_QQCZKpESwVjJWggx2oT-kt4IFSXTNlyLlHMoALF7xiPD3_y2KfLOShmoolHYg2pxueKzQjGp8tdFwpyklS_tkoAnSc_304HxWZkWKiyVNGWCEB58kY&quot;&gt;&lt;/span&gt;&lt;/span&gt;&lt;p&gt;&lt;/p&gt;&lt;span style=&quot;font-size: 11pt; font-family: Arial; background-color: transparent; font-variant-numeric: normal; font-variant-east-asian: normal; font-variant-alternates: normal; vertical-align: baseline;&quot;&gt;Referem-se aos conjuntos de um ou mais campos, cujos valores, considerando a combinação de valores em caso de mais de uma chave primária, nunca se repetem na mesma tabela.&lt;/span&gt;&lt;p&gt;&lt;/p&gt;&lt;span style=&quot;font-size: 11pt; font-family: Arial; background-color: transparent; font-variant-numeric: normal; font-variant-east-asian: normal; font-variant-alternates: normal; vertical-align: baseline;&quot;&gt;h) Chave primária;&lt;/span&gt;&lt;p&gt;&lt;/p&gt;&lt;span style=&quot;font-size: 11pt; font-family: Arial; background-color: transparent; font-variant-numeric: normal; font-variant-east-asian: normal; font-variant-alternates: normal; vertical-align: baseline;&quot;&gt;É a etapa seguinte da modelagem conceitual e é definido como a descrição da estrutura que pode ser processada pelo SGBD, essa descrição é obtida a partir do mapeamento de um modelo conceitual.&lt;/span&gt;&lt;p&gt;&lt;/p&gt;&lt;span style=&quot;font-size: 11pt; font-family: Arial; background-color: transparent; font-variant-numeric: normal; font-variant-east-asian: normal; font-variant-alternates: normal; vertical-align: baseline;&quot;&gt;g) Projeto lógico;&lt;/span&gt;&lt;p&gt;&lt;/p&gt;&lt;span style=&quot;font-size: 11pt; font-family: Arial; background-color: transparent; font-variant-numeric: normal; font-variant-east-asian: normal; font-variant-alternates: normal; vertical-align: baseline;&quot;&gt;&lt;span style=&quot;border:none;display:inline-block;overflow:hidden;width:395px;height:149px;&quot;&gt;&lt;img style=&quot;margin-left:0px;margin-top:0px;&quot; height=&quot;149&quot; width=&quot;395&quot; src=&quot;https://lh5.googleusercontent.com/0nt_RLVUSygxxJ9etymtzeagiKD4MjCdALsNgzfoU9pGfSfTVKxfdJEP9iz-oheBqcXjo-8nq0qjQwpqk0m_LxJ6bNa_QglCvYZHMJydFJgnXDAZbYMgPyyjbXv1-_eStUWDpY7ykZhL_HR9yhAaMAw&quot; alt=&quot;Modelagem de Bancos de Dados: Conceitual, Lógica e Física&quot;&gt;&lt;/span&gt;&lt;/span&gt;&lt;p&gt;&lt;/p&gt;&lt;span style=&quot;font-size: 11pt; font-family: Arial; background-color: transparent; font-variant-numeric: normal; font-variant-east-asian: normal; font-variant-alternates: normal; vertical-align: baseline;&quot;&gt;Exemplo&lt;/span&gt;&lt;p&gt;&lt;/p&gt;&lt;span style=&quot;font-size: 11pt; font-family: Arial; background-color: transparent; font-variant-numeric: normal; font-variant-east-asian: normal; font-variant-alternates: normal; vertical-align: baseline;&quot;&gt;É a forma mais natual dos fatos e estão mais próximas da realidade do ambiente do cliente.&lt;/span&gt;&lt;p&gt;&lt;/p&gt;&lt;span style=&quot;font-size: 11pt; font-family: Arial; background-color: transparent; font-variant-numeric: normal; font-variant-east-asian: normal; font-variant-alternates: normal; vertical-align: baseline;&quot;&gt;f) Modelagem conceitual;&lt;/span&gt;&lt;p&gt;&lt;/p&gt;&lt;span style=&quot;font-size: 11pt; font-family: Arial; background-color: transparent; font-variant-numeric: normal; font-variant-east-asian: normal; font-variant-alternates: normal; vertical-align: baseline;&quot;&gt;&lt;span style=&quot;border:none;display:inline-block;overflow:hidden;width:350px;height:434px;&quot;&gt;&lt;img style=&quot;margin-left:0px;margin-top:0px;&quot; height=&quot;434&quot; width=&quot;350&quot; src=&quot;https://lh6.googleusercontent.com/HtPhyDm7XHHFR8GC3wM_i_PVeMP-mxjysq-yiM8xvb-qrkFaKsNYMg_EMwc-IgxLVcTRplDQb8m0QCxEZraXXNwvsG7ivn1dUJmuqrlA-uaTGETTAI5ckiUndm98AJYKORD_-badur2TEv7ngQVS-mA&quot; alt=&quot;Modelo de banco de dados visio&quot;&gt;&lt;/span&gt;&lt;/span&gt;&lt;p&gt;&lt;/p&gt;&lt;span style=&quot;font-size: 11pt; font-family: Arial; background-color: transparent; font-variant-numeric: normal; font-variant-east-asian: normal; font-variant-alternates: normal; vertical-align: baseline;&quot;&gt;Exemplo&amp;nbsp;&lt;/span&gt;&lt;p&gt;&lt;/p&gt;&lt;span style=&quot;font-size: 11pt; font-family: Arial; background-color: transparent; font-variant-numeric: normal; font-variant-east-asian: normal; font-variant-alternates: normal; vertical-align: baseline;&quot;&gt;O modelo lógico já leva em conta algumas limitações e implementa recursos como adequação de padrão e nomenclatura, define as chaves primárias e estrangeiras&lt;/span&gt;&lt;span style=&quot;font-size: 11pt; font-family: Arial; background-color: rgb(255, 255, 255); font-variant-numeric: normal; font-variant-east-asian: normal; font-variant-alternates: normal; vertical-align: baseline;&quot;&gt;, normalização, integridade referencial, entre outras. Para o modelo lógico deve ser criado levando em conta os exemplos de modelagem de dados criados no modelo conceitual.&lt;/span&gt;&lt;p&gt;&lt;/p&gt;&lt;span style=&quot;font-size: 11pt; font-family: Arial; background-color: transparent; font-variant-numeric: normal; font-variant-east-asian: normal; font-variant-alternates: normal; vertical-align: baseline;&quot;&gt;e) Modelo lógico;&lt;/span&gt;&lt;p&gt;&lt;/p&gt;&lt;span style=&quot;font-size: 11pt; font-family: Arial; background-color: rgb(255, 255, 255); font-variant-numeric: normal; font-variant-east-asian: normal; font-variant-alternates: normal; vertical-align: baseline;&quot;&gt;&lt;span style=&quot;border:none;display:inline-block;overflow:hidden;width:242px;height:234px;&quot;&gt;&lt;img style=&quot;margin-left:0px;margin-top:0px;&quot; height=&quot;234&quot; width=&quot;242&quot; src=&quot;https://lh5.googleusercontent.com/n5mNIyu4dDAeU-1ZONEUftUiky5TSRuf3axDxZtp9tsX6ZybVRPZNhwOptrzo_kCWsIDMi3el8e4z3poop5JBsQS5eM-Z6p9k8XRQwE18KWRvtZSPtdMUZQDZKU7smaMS0CVMKt2yXlnck0eBUWio8I&quot; alt=&quot;Modelo de Entidade e Relacionamento&quot;&gt;&lt;/span&gt;&lt;/span&gt;&lt;p&gt;&lt;/p&gt;&lt;span style=&quot;font-size: 11pt; font-family: Arial; background-color: rgb(255, 255, 255); font-variant-numeric: normal; font-variant-east-asian: normal; font-variant-alternates: normal; vertical-align: baseline;&quot;&gt;Exemplo :&amp;nbsp;&lt;/span&gt;&lt;p&gt;&lt;/p&gt;&lt;span style=&quot;font-size: 11pt; font-family: Arial; background-color: transparent; font-variant-numeric: normal; font-variant-east-asian: normal; font-variant-alternates: normal; vertical-align: baseline;&quot;&gt;É a representação escrita ou gráfica ou seja O &lt;/span&gt;&lt;span style=&quot;font-size: 11pt; font-family: Arial; background-color: rgb(255, 255, 255); font-variant-numeric: normal; font-variant-east-asian: normal; font-variant-alternates: normal; vertical-align: baseline;&quot;&gt;modelo conceitual concentra-se no mais alto nível de abstração e não leva em conta o banco de dados em si&lt;/span&gt;&lt;p&gt;&lt;/p&gt;&lt;span style=&quot;font-size: 11pt; font-family: Arial; background-color: transparent; font-variant-numeric: normal; font-variant-east-asian: normal; font-variant-alternates: normal; vertical-align: baseline;&quot;&gt;d) Modelo conceitual;&lt;/span&gt;&lt;p&gt;&lt;/p&gt;&lt;span style=&quot;font-size: 11pt; font-family: Arial; background-color: transparent; font-variant-numeric: normal; font-variant-east-asian: normal; font-variant-alternates: normal; vertical-align: baseline;&quot;&gt;Um exemplo seria a&lt;/span&gt;&lt;span style=&quot;font-size: 12pt; font-family: Arial; background-color: transparent; font-variant-numeric: normal; font-variant-east-asian: normal; font-variant-alternates: normal; vertical-align: baseline;&quot;&gt; representações visuais dos elementos de uma empresa e as conexões entre eles.&lt;/span&gt;&lt;p&gt;&lt;/p&gt;&lt;span style=&quot;font-size: 11pt; font-family: Arial; background-color: transparent; font-variant-numeric: normal; font-variant-east-asian: normal; font-variant-alternates: normal; vertical-align: baseline;&quot;&gt;São o fluxograma que ilustram as entidades de dados, seus atributos e os relacionamentos entre as suas entidades.&lt;/span&gt;&lt;p&gt;&lt;/p&gt;&lt;span style=&quot;font-size: 11pt; font-family: Arial; background-color: transparent; font-variant-numeric: normal; font-variant-east-asian: normal; font-variant-alternates: normal; vertical-align: baseline;&quot;&gt;c) Modelo de dados;&lt;/span&gt;&lt;p&gt;&lt;/p&gt;&lt;span style=&quot;font-size: 11pt; font-family: Arial; background-color: transparent; font-variant-numeric: normal; font-variant-east-asian: normal; font-variant-alternates: normal; vertical-align: baseline;&quot;&gt;Um exemplo é o Oracle, MySQL, PostgreSQL.&lt;/span&gt;&lt;p&gt;&lt;/p&gt;&lt;span style=&quot;font-size: 11pt; font-family: Arial; background-color: transparent; font-variant-numeric: normal; font-variant-east-asian: normal; font-variant-alternates: normal; vertical-align: baseline;&quot;&gt;Sistemas gerenciadores é onde o dado é criado e feito a sua manutenção.&lt;/span&gt;&lt;p&gt;&lt;/p&gt;&lt;span style=&quot;font-size: 11pt; font-family: Arial; background-color: transparent; font-variant-numeric: normal; font-variant-east-asian: normal; font-variant-alternates: normal; vertical-align: baseline;&quot;&gt;b) Sistema de gerência de banco de dados;&lt;/span&gt;&lt;p&gt;&lt;/p&gt;&lt;span style=&quot;font-size: 11pt; font-family: Arial; background-color: transparent; font-variant-numeric: normal; font-variant-east-asian: normal; font-variant-alternates: normal; vertical-align: baseline;&quot;&gt;Alguns exemplos são: &lt;/span&gt;&lt;span style=&quot;font-size: 12pt; font-family: Arial; background-color: rgb(255, 255, 255); font-variant-numeric: normal; font-variant-east-asian: normal; font-variant-alternates: normal; vertical-align: baseline;&quot;&gt;uma lista telefônica, um catálogo de CDs ou um sistema de controle de RH de uma empresa&lt;/span&gt;&lt;span style=&quot;font-size: 12pt; font-family: Arial; background-color: transparent; font-variant-numeric: normal; font-variant-east-asian: normal; font-variant-alternates: normal; vertical-align: baseline;&quot;&gt;.&lt;/span&gt;&lt;p&gt;&lt;/p&gt;&lt;span style=&quot;font-size: 11pt; font-family: Arial; background-color: transparent; font-variant-numeric: normal; font-variant-east-asian: normal; font-variant-alternates: normal; vertical-align: baseline;&quot;&gt;Banco de Dados é um conjunto de dados que possuem alguma relação ou não&lt;/span&gt;&lt;p&gt;&lt;/p&gt;&lt;span style=&quot;font-size: 11pt; font-family: Arial; background-color: transparent; font-variant-numeric: normal; font-variant-east-asian: normal; font-variant-alternates: normal; vertical-align: baseline;&quot;&gt;a) Banco de dados;&lt;/span&gt;&lt;p&gt;&lt;/p&gt;&lt;span style=&quot;font-size: 11pt; font-family: Arial; background-color: transparent; font-variant-numeric: normal; font-variant-east-asian: normal; font-variant-alternates: normal; vertical-align: baseline;&quot;&gt;Defina os conceitos a seguir. Para cada um, mencione exemplo(s):&lt;/span&gt;&lt;p&gt;&lt;/p&gt;&lt;span style=&quot;font-size: 11pt; font-family: Arial; background-color: transparent; font-variant-numeric: normal; font-variant-east-asian: normal; font-variant-alternates: normal; vertical-align: baseline;&quot;&gt;Exercicio 0 - Aquecimento: revendo os conceitos&lt;/span&gt;&lt;p&gt;&lt;/p&gt;&lt;span id=&quot;docs-internal-guid-0238f444-7fff-4615-e714-1091be616fad&quot;&gt;&lt;/span&gt;&lt;span id=&quot;docs-internal-guid-c7d4a32f-7fff-92c1-6b30-2b31597143bc&quot;&gt;&lt;/span&gt;&lt;/div&gt;&lt;/div&gt;&lt;/div&gt;" style="text;html=1;strokeColor=none;fillColor=none;align=center;verticalAlign=middle;whiteSpace=wrap;rounded=0;" parent="1" vertex="1">
          <mxGeometry x="20" y="60" width="810" height="3100" as="geometry" />
        </mxCell>
      </root>
    </mxGraphModel>
  </diagram>
</mxfile>
